_________________________  Visit us at _________________________
  
http://p2pdl.com  ____________________________  http://p2pdl.com


Barbie In The Pink Shoes 2013 BRRip 720p x264 AAC - PRiSTiNE [P2PDL]

Genre: Animation | Family
Plot: Dance your way to a magical adventure with Barbie(TM) as 
Kristyn(TM), a ballerina with big dreams! When she tries on a 
pair of sparkling pink shoes, she and her best friend, Hailey(TM), 
are whisked away to a fantastical ballet world. There, Kristyn(TM) 
discovers she must dance in her favorite ballets in order to defeat 
an evil Snow Queen. With performances to the legendary Giselle and 
Swan Lake ballets, it's a wonderful journey where if you dance with 
your heart, dreams come true!
Director: Owen Hurley
Stars: Ali Liebert, Bill Mondy, Lori Triolo
Rated: No. 

Info: 
http://www.imdb.com/title/tt2630134/

General
Complete name                  : Barbie In The Pink Shoes 2013 BRRip 720p x264 AAC - PRiSTiNE.mp4
Format                         : MPEG-4
File size                      : 401 MiB
Duration                       : 1h 14mn
Overall bit rate mode          : Variable
Overall bit rate               : 750 Kbps

Video
Format                         : AVC
Format/Info                    : Advanced Video Codec
Format profile                 : High 10@L4.1
Bit rate                       : 669 Kbps
Width                          : 1 280 pixels
Height                         : 720 pixels
Display aspect ratio           : 16:9
Frame rate mode                : Constant
Frame rate                     : 23.976 fps
Bit depth                      : 10 bits
Stream size                    : 357 MiB (89%)
Writing library                : x264 core 130 r2273 b3065e6

Audio
Format                         : AAC
Bit rate mode                  : Variable
Bit rate                       : 79.8 Kbps
Channel(s)                     : 2 channels
Channel positions              : Front: L R
Sampling rate                  : 48.0 KHz / 24.0 KHz
Stream size                    : 42.7 MiB (11%)
Language                       : English

Subtitle                       : Yes (English)
Source                         : 720p.BluRay.x264-SONiDO (Thanks)

Screenshots:
 
http://www.ultraimg.com/images/GCuF5.jpg 
http://www.ultraimg.com/images/PuKDh.jpg 
http://www.ultraimg.com/images/SyGYB.jpg 
http://www.ultraimg.com/images/wjRoe.jpg 
http://www.ultraimg.com/images/oc53T.jpg 
http://www.ultraimg.com/images/t1NsI.jpg 
http://www.ultraimg.com/images/Jaxuw.jpg

----------------------------------------------------------------------------------------------------


Encoded using revolutionary 10bit encoding, which enables us to provide you more crispier 
and sharper images at small sizes, just make sure you follow our instructions without a fault.
Recommend to you to use latest version of VLC player. Install K-Lite Codec Pack or shark007 codecs
in case of any kind of problem in playback (For non-VLC Media Player users). Alternatively, install
Core AVC codecs, the fastest decoder that there is coupled with Community Center Codec Pack and play
on Windows Media Player Classic. Check sample to be sure.
Enjoy!

Encoder Notes:Looking For Early Access To Anything You Can Provide DVDScr, R5, DVDR, BluRay, Direct
Audio, Music Releases and Seedboxes. We require dedicated servers, so as to do more 
and fast releases of movies.
If You Got anything to offer please contact us at "prg@hush.com".

Face book Fan Page:   
http://www.fb.me/p2pdl